<svg id="svg" xmlns="http://www.w3.org/2000/svg" xmlns:xlink="http://www.w3.org/1999/xlink" width="400" height="400" viewBox="0, 0, 400,400"><g id="svgg"><path id="path0" d="M179.727 18.866 C 150.649 21.902,111.719 36.410,111.719 44.209 C 111.719 50.977,116.980 51.747,128.005 46.592 C 144.713 38.779,171.049 31.286,181.913 31.253 C 182.493 31.251,180.476 33.917,177.431 37.177 C 166.853 48.505,153.628 66.056,145.104 80.078 L 140.831 87.109 106.947 87.313 L 73.063 87.517 80.086 80.431 C 83.949 76.534,89.570 71.364,92.578 68.943 C 101.007 62.157,102.463 58.301,97.942 54.744 C 93.431 51.196,88.935 53.883,72.781 69.783 C 51.973 90.262,38.181 111.702,28.491 138.632 L 25.975 145.624 21.425 146.658 C 12.645 148.652,4.682 155.515,1.604 163.739 C -0.869 170.351,-0.869 229.649,1.604 236.261 C 4.682 244.485,12.645 251.348,21.425 253.342 L 25.975 254.376 28.491 261.368 C 65.430 364.030,183.307 411.576,280.994 363.215 C 295.117 356.223,297.678 353.218,293.762 348.240 C 290.843 344.529,289.138 344.783,277.495 350.663 C 258.638 360.185,230.635 368.709,218.087 368.747 C 217.507 368.749,219.524 366.083,222.569 362.823 C 232.988 351.665,245.194 335.473,255.053 319.727 L 259.578 312.500 293.266 312.533 L 326.953 312.566 316.445 322.787 C 304.890 334.026,303.794 336.172,307.639 340.017 C 317.455 349.834,357.666 300.850,371.077 262.739 L 374.019 254.377 378.572 253.343 C 387.355 251.348,395.318 244.486,398.396 236.261 C 400.869 229.649,400.869 170.351,398.396 163.739 C 395.318 155.515,387.355 148.652,378.575 146.658 L 374.025 145.624 371.509 138.632 C 342.830 58.927,264.504 10.013,179.727 18.866 M233.594 33.726 C 264.239 39.513,294.640 55.693,317.969 78.631 L 326.953 87.465 293.266 87.483 L 259.578 87.500 255.053 80.273 C 245.161 64.476,232.989 48.335,222.479 37.081 L 216.853 31.057 221.122 31.617 C 223.470 31.925,229.082 32.874,233.594 33.726 M209.880 42.456 C 220.459 53.472,229.753 65.064,238.446 78.086 L 244.470 87.109 222.235 87.317 C 210.006 87.431,189.994 87.431,177.765 87.317 L 155.530 87.109 161.554 78.086 C 172.083 62.315,197.136 32.813,200.000 32.813 C 200.341 32.813,204.787 37.152,209.880 42.456 M133.444 100.586 C 133.290 100.908,131.649 104.336,129.798 108.203 C 125.326 117.542,119.507 131.685,116.859 139.648 L 114.715 146.094 76.900 146.094 L 39.084 146.094 40.708 141.602 C 43.696 133.334,52.222 116.453,57.583 108.191 L 62.891 100.011 98.307 100.006 C 117.786 100.003,133.598 100.264,133.444 100.586 M258.033 112.305 C 263.097 122.786,269.489 138.064,271.435 144.336 L 271.980 146.094 200.000 146.094 L 128.020 146.094 128.565 144.336 C 130.511 138.064,136.903 122.786,141.967 112.305 L 147.912 100.000 200.000 100.000 L 252.088 100.000 258.033 112.305 M342.417 108.191 C 347.778 116.453,356.304 133.334,359.292 141.602 L 360.916 146.094 323.100 146.094 L 285.285 146.094 283.141 139.648 C 280.566 131.902,274.886 118.042,270.016 107.617 L 266.457 100.000 301.783 100.006 L 337.109 100.011 342.417 108.191 M378.742 160.080 C 387.629 164.638,387.891 165.780,387.891 200.000 C 387.891 234.220,387.629 235.362,378.742 239.920 C 374.573 242.058,25.863 242.276,21.641 240.143 C 12.334 235.441,12.109 234.495,12.109 200.000 C 12.109 165.585,12.310 164.729,21.484 159.892 C 25.486 157.783,374.621 157.967,378.742 160.080 M76.385 173.242 C 73.719 176.279,74.002 177.563,82.539 201.188 C 91.852 226.959,92.469 228.125,96.796 228.125 C 101.116 228.125,102.262 226.324,107.852 210.749 C 110.588 203.126,113.047 197.149,113.317 197.468 C 113.587 197.786,116.014 204.199,118.711 211.719 C 124.248 227.155,124.849 228.125,128.878 228.125 C 133.577 228.125,134.069 227.246,143.024 202.867 C 153.363 174.720,153.582 171.875,145.403 171.875 C 141.143 171.875,140.448 172.986,134.523 189.272 L 129.254 203.754 123.920 189.033 C 118.191 173.223,117.347 171.875,113.174 171.875 C 108.841 171.875,108.111 173.013,102.454 188.578 C 99.505 196.691,96.910 203.019,96.687 202.641 C 96.464 202.263,94.054 195.813,91.333 188.309 C 88.611 180.805,85.756 174.038,84.989 173.270 C 83.142 171.423,77.997 171.406,76.385 173.242 M163.281 173.438 C 160.698 176.020,161.353 178.874,169.984 202.635 C 179.064 227.635,179.328 228.125,183.715 228.125 C 188.126 228.125,188.972 226.818,194.470 211.499 C 197.202 203.886,199.691 197.656,200.000 197.656 C 200.309 197.656,202.798 203.886,205.530 211.499 C 211.028 226.818,211.874 228.125,216.285 228.125 C 220.672 228.125,220.936 227.635,230.016 202.635 C 240.096 174.884,240.305 171.875,232.152 171.875 C 227.953 171.875,227.413 172.733,221.836 188.281 C 219.139 195.801,216.712 202.214,216.442 202.532 C 216.172 202.851,213.718 196.945,210.988 189.408 C 205.190 173.401,204.233 171.875,200.000 171.875 C 195.785 171.875,194.917 173.265,189.072 189.366 C 186.192 197.298,183.830 202.736,183.511 202.165 C 183.207 201.619,180.779 195.195,178.116 187.891 C 175.453 180.586,172.730 173.994,172.063 173.242 C 170.356 171.316,165.290 171.429,163.281 173.438 M250.030 173.585 C 247.536 176.262,247.916 177.871,256.808 202.317 C 265.823 227.102,266.384 228.125,270.973 228.125 C 275.172 228.125,275.712 227.267,281.289 211.719 C 283.986 204.199,286.413 197.786,286.683 197.468 C 286.953 197.149,289.412 203.126,292.148 210.749 C 294.884 218.372,297.831 225.400,298.698 226.367 C 300.925 228.853,305.610 228.795,307.607 226.256 C 309.980 223.238,325.931 178.277,325.329 176.300 C 324.400 173.245,322.567 171.875,319.410 171.875 C 315.009 171.875,314.153 173.185,308.667 188.309 C 305.946 195.813,303.536 202.263,303.313 202.641 C 303.090 203.019,300.495 196.691,297.546 188.578 C 291.889 173.013,291.159 171.875,286.826 171.875 C 282.653 171.875,281.809 173.223,276.080 189.033 L 270.746 203.754 265.477 189.272 C 262.579 181.307,259.615 174.134,258.889 173.332 C 256.995 171.239,252.085 171.379,250.030 173.585 M116.859 260.352 C 119.507 268.315,125.326 282.458,129.798 291.797 C 131.649 295.664,133.290 299.092,133.444 299.414 C 133.598 299.736,117.786 299.997,98.307 299.994 L 62.891 299.989 57.583 291.809 C 52.222 283.547,43.696 266.666,40.708 258.398 L 39.084 253.906 76.900 253.906 L 114.715 253.906 116.859 260.352 M271.435 255.664 C 269.489 261.936,263.097 277.214,258.033 287.695 L 252.088 300.000 200.000 300.000 L 147.912 300.000 141.967 287.695 C 136.903 277.214,130.511 261.936,128.565 255.664 L 128.020 253.906 200.000 253.906 L 271.980 253.906 271.435 255.664 M359.053 258.876 C 354.255 271.626,348.910 282.096,341.151 293.945 L 337.187 300.000 301.822 300.000 L 266.457 300.000 270.016 292.383 C 274.886 281.958,280.566 268.098,283.141 260.352 L 285.285 253.906 323.104 253.906 L 360.924 253.906 359.053 258.876 M141.659 314.258 C 153.804 334.208,165.388 349.927,177.521 362.919 L 183.147 368.943 178.878 368.383 C 141.750 363.513,108.622 347.423,82.031 321.346 L 73.047 312.535 106.818 312.517 L 140.589 312.500 141.659 314.258 M241.725 316.992 C 232.307 331.812,221.584 345.404,209.570 357.746 L 200.000 367.578 190.430 357.746 C 178.416 345.404,167.693 331.812,158.275 316.992 L 155.421 312.500 200.000 312.500 L 244.579 312.500 241.725 316.992 " stroke="none" fill="#000000" fill-rule="evenodd"></path></g></svg>